# xmcd
#
# Track frame offsets:
#	182
#	16820
#	34845
#	61695
#
# Disc length: 1185 seconds
#
# Revision: 0
# Processed by: cddbd v1.5.2PL0 Copyright (c) Steve Scherf et al.
# Submitted via: EasyCDDAExtractor 2010.6.0.0
#
DISCID=24049f04
DTITLE=ABC - One Better World
DYEAR=1989
DGENRE=Pop
TTITLE0=One Better World
TTITLE1=One Better World (Percapella Mix)
TTITLE2=One Better World (Club Mix)
TTITLE3=One Better World (Garage Mix)
EXTD=
EXTT0=
EXTT1=
EXTT2=
EXTT3=
PLAYORDER=
